<?xml version="1.0" encoding="UTF-8" standalone="no"?>
<svg width="25px" height="23px" viewBox="0 0 25 23" version="1.1" xmlns="http://www.w3.org/2000/svg" xmlns:xlink="http://www.w3.org/1999/xlink" xmlns:sketch="http://www.bohemiancoding.com/sketch/ns">
    <defs></defs>
    <g id="Welcome" stroke="none" stroke-width="1" fill="none" fill-rule="evenodd" sketch:type="MSPage">
        <g id="Tablet-Portrait" sketch:type="MSArtboardGroup" transform="translate(-148.000000, -184.000000)" fill="#FFFFFF">
            <path d="M172.890484,199.611641 L172.890484,190.724568 C172.890484,190.665318 172.890484,190.606069 172.86129,190.546819 L172.86129,190.487569 C172.831989,190.42832 172.831989,190.398721 172.802688,190.339471 C172.802688,190.339471 172.802688,190.309821 172.773441,190.309821 C172.74414,190.250571 172.714839,190.220972 172.656237,190.161723 L172.627043,190.132072 C172.597742,190.102473 172.539194,190.072874 172.509839,190.043223 L172.480591,190.013625 L160.767366,184.088874 C160.562527,183.970375 160.328118,183.970375 160.12328,184.088874 L148.41,190.013625 L148.380699,190.043223 C148.322097,190.072874 148.292796,190.102473 148.263495,190.132072 L148.234247,190.161723 C148.204946,190.191321 148.146398,190.250571 148.117043,190.309821 C148.117043,190.309821 148.117043,190.339471 148.087849,190.339471 C148.058548,190.36907 148.058548,190.42832 148.029247,190.487569 L148.029247,190.546819 C148,190.606069 148,190.665318 148,190.724568 L148,199.611641 C148,200.026388 148.322043,200.352235 148.731989,200.352235 C149.141935,200.352235 149.464086,200.026388 149.464086,199.611641 L149.464086,191.909507 L159.713011,197.093612 L159.713011,205.536287 C159.713011,205.951086 160.035215,206.276933 160.445161,206.276933 C160.855108,206.276933 161.177258,205.951086 161.177258,205.536339 L161.177258,197.093664 L171.426183,191.909455 L171.426183,199.611746 C171.426183,200.026493 171.748387,200.352339 172.158333,200.352339 C172.56828,200.352339 172.890376,200.026493 172.890376,199.611746 L172.890484,199.611641 Z M160.445323,195.819772 L150.371989,190.724568 L160.445323,185.629364 L170.518656,190.724568 L160.445323,195.819772 L160.445323,195.819772 Z"></path>
        </g>
    </g>
</svg>